<?xml version="1.0" standalone="no"?>
<!DOCTYPE svg PUBLIC "-//W3C//DTD SVG 20010904//EN"
 "http://www.w3.org/TR/2001/REC-SVG-20010904/DTD/svg10.dtd">
<svg version="1.0" xmlns="http://www.w3.org/2000/svg"
 width="300.000000pt" height="298.000000pt" viewBox="0 0 300.000000 298.000000"
 preserveAspectRatio="xMidYMid meet">
<metadata>
Created by potrace 1.10, written by Peter Selinger 2001-2011
</metadata>
<g transform="translate(0.000000,298.000000) scale(0.100000,-0.100000)"
fill="#000000" stroke="none">
<path d="M12 2968 c-9 -9 -12 -349 -12 -1468 l0 -1457 23 -21 23 -22 1455 0
1454 0 23 33 22 33 0 1432 c0 1065 -3 1438 -12 1457 l-11 25 -1477 0 c-1135 0
-1479 -3 -1488 -12z m2948 -1473 l0 -1465 -1465 0 -1465 0 0 1465 0 1465 1465
0 1465 0 0 -1465z"/>
<path d="M1697 2800 c10 -10 99 -23 90 -14 -4 4 -27 10 -52 14 -25 4 -42 4
-38 0z"/>
<path d="M1283 2786 c16 -13 16 -14 -5 -19 -12 -4 -27 -2 -33 3 -12 10 -53 6
-64 -6 -3 -4 6 -4 22 -2 29 6 37 -6 11 -16 -25 -9 -56 -7 -49 4 3 6 3 10 -2
10 -12 0 -35 -16 -34 -24 3 -20 -1 -26 -15 -26 -9 0 -12 5 -8 13 3 6 -5 0 -20
-15 -26 -27 -43 -37 -32 -19 4 5 -3 7 -15 4 -14 -4 -17 -8 -9 -13 8 -5 5 -12
-11 -24 -28 -19 -53 -21 -44 -3 4 6 -2 2 -13 -10 -11 -13 -25 -23 -30 -23 -19
0 -113 -93 -108 -106 3 -7 0 -16 -6 -20 -7 -4 -8 -3 -4 4 4 7 3 12 -2 12 -16
0 -89 -101 -160 -221 -46 -76 -91 -240 -103 -370 -11 -120 -11 -128 15 -233
60 -249 197 -454 384 -577 109 -72 180 -92 347 -99 77 -3 141 -5 143 -4 2 1
-10 29 -27 62 -71 140 -216 232 -416 262 -199 30 -277 75 -334 193 -51 104
-65 176 -65 327 1 108 5 151 23 214 47 170 132 314 259 440 125 124 263 202
429 243 93 23 313 23 405 0 348 -87 608 -339 704 -683 24 -89 30 -272 10 -373
-38 -201 -133 -312 -291 -340 -33 -5 -91 -16 -130 -22 -143 -25 -236 -71 -318
-158 -42 -45 -76 -100 -91 -146 -6 -20 -3 -20 142 -14 163 8 214 21 331 85 85
48 223 186 279 281 76 129 152 359 152 460 0 77 -27 232 -54 310 -72 212 -218
402 -400 521 -77 50 -101 57 -89 26 5 -14 3 -14 -16 -3 -11 8 -21 17 -21 22 0
4 4 6 9 2 5 -3 12 -1 15 4 3 5 -1 12 -10 15 -21 8 -24 8 -22 -3 4 -13 -4 -15
-32 -6 l-25 9 25 6 c21 5 22 7 8 13 -10 3 -24 0 -31 -8 -8 -7 -18 -10 -23 -6
-10 8 -83 31 -124 37 -14 3 -32 7 -40 11 -28 11 -335 10 -342 -1 -4 -7 -16 -6
-35 2 -24 11 -26 11 -10 -2z m745 -122 c25 -15 58 -39 75 -55 16 -16 34 -29
38 -29 5 0 9 -7 9 -16 0 -13 -2 -13 -14 -2 -7 7 -30 27 -51 43 -21 17 -44 36
-51 43 -7 6 -17 12 -21 12 -12 0 -50 29 -39 30 5 0 29 -12 54 -26z m236 -1351
c-69 -100 -207 -200 -335 -243 -76 -26 -279 -41 -279 -21 0 42 62 117 138 168
76 50 131 69 270 92 67 11 147 31 179 44 32 13 60 22 62 21 2 -2 -13 -30 -35
-61z m-1481 43 c47 -21 97 -35 146 -41 109 -14 226 -50 296 -93 75 -45 165
-148 151 -170 -10 -16 -151 -13 -227 4 -69 15 -142 48 -214 97 -75 50 -225
217 -194 217 6 0 25 -6 42 -14z"/>
<path d="M1375 2719 c-151 -22 -323 -106 -448 -218 -70 -62 -156 -179 -202
-274 -105 -217 -122 -447 -48 -649 35 -94 114 -178 183 -195 69 -17 204 -41
209 -37 3 2 -7 17 -22 32 -14 15 -38 54 -54 87 -23 50 -28 74 -28 141 0 82 -8
95 -26 47 -12 -31 14 -185 37 -217 21 -30 17 -46 -12 -46 -31 0 -126 87 -157
145 -11 22 -26 65 -32 94 -6 30 -14 48 -17 40 -10 -27 18 -127 48 -170 16 -23
41 -50 56 -58 16 -9 28 -22 28 -29 0 -19 -68 13 -107 50 -87 85 -146 314 -118
461 7 34 10 37 40 37 28 0 49 -14 130 -90 94 -87 211 -160 256 -160 11 0 19
-4 19 -10 0 -5 7 -10 16 -10 76 0 284 -211 300 -303 1 -7 7 -32 13 -57 11 -49
15 -170 5 -170 -4 0 -35 27 -71 60 -44 42 -92 74 -157 105 -57 27 -105 58
-122 77 -42 50 -83 145 -90 210 -10 87 -28 87 -22 0 10 -135 89 -258 195 -301
120 -49 209 -125 257 -220 30 -59 38 -43 44 87 5 122 -7 191 -50 277 -66 131
-176 224 -339 286 -114 43 -138 58 -239 155 -77 72 -85 77 -152 89 -21 3 -38
9 -38 14 0 12 39 122 56 159 15 31 29 45 18 18 -3 -8 4 -45 15 -83 11 -37 21
-79 23 -93 2 -17 5 -20 9 -10 3 8 -3 50 -13 93 -11 43 -17 85 -14 93 3 8 19
22 36 32 16 9 30 22 30 28 0 14 66 74 80 74 6 0 10 7 10 16 0 9 13 21 29 27
22 8 31 19 35 43 4 17 15 39 26 49 11 10 20 25 20 34 0 28 39 80 64 87 13 3
34 1 45 -6 19 -10 21 -8 21 25 0 39 21 55 45 35 12 -10 15 -9 15 4 0 8 11 23
25 32 25 16 27 16 50 -6 l25 -24 31 30 c28 27 31 28 41 11 9 -18 12 -17 44 14
19 18 34 37 34 41 0 9 -2 9 -85 -3z m-365 -210 c0 -11 -13 -40 -30 -64 -16
-24 -30 -46 -30 -48 0 -12 -167 -170 -187 -178 l-23 -9 26 53 c15 28 42 72 61
97 40 52 162 170 175 170 4 0 8 -9 8 -21z"/>
<path d="M1556 2704 c13 -19 23 -24 40 -20 19 5 27 0 39 -24 20 -38 22 -38 93
-1 28 15 52 0 52 -31 0 -15 4 -18 18 -13 48 21 70 18 86 -12 8 -17 12 -40 9
-52 -6 -23 -5 -23 25 -7 l31 16 41 -62 c23 -34 44 -78 49 -97 5 -25 13 -37 26
-39 55 -8 65 -13 65 -33 0 -13 11 -25 34 -34 19 -8 44 -26 55 -41 12 -15 21
-23 21 -18 0 5 -14 23 -30 39 -17 17 -42 43 -58 58 -15 16 -41 35 -59 42 -21
9 -37 26 -48 51 -8 21 -29 60 -46 87 -16 27 -27 52 -24 55 3 4 9 2 13 -4 4 -6
18 -17 30 -23 128 -68 283 -287 342 -486 17 -55 31 -67 19 -17 -63 283 -290
538 -565 638 -60 22 -211 54 -256 54 -18 0 -18 -1 -2 -26z m159 -25 c5 -6 4
-9 -5 -9 -8 0 -24 -3 -35 -6 -14 -3 -24 2 -33 17 -13 21 -13 21 25 15 21 -4
42 -12 48 -17z m236 -95 c11 -14 10 -15 -11 -12 -13 1 -25 9 -28 16 -5 17 23
15 39 -4z"/>
<path d="M1458 2506 c-44 -92 -53 -120 -56 -176 -3 -48 0 -76 12 -98 20 -38
17 -39 -28 -8 -19 13 -62 28 -95 35 -33 7 -63 16 -66 21 -12 19 -25 9 -25 -18
0 -48 28 -125 56 -155 14 -16 59 -53 100 -83 40 -30 84 -69 97 -87 26 -34 57
-113 58 -150 0 -12 6 -1 13 24 6 25 24 66 38 91 26 43 47 64 158 157 33 28 61
63 76 95 26 56 33 142 12 132 -7 -2 -43 -14 -79 -25 -37 -12 -78 -31 -93 -42
-32 -25 -43 -20 -26 11 7 14 11 53 9 99 -4 69 -9 88 -56 181 l-52 105 -53
-109z m88 -38 c40 -88 45 -190 13 -273 -13 -33 -22 -66 -20 -73 1 -8 -3 -20
-10 -28 -10 -12 -14 -12 -25 4 -25 36 -64 171 -64 222 0 51 53 210 69 210 5 0
21 -28 37 -62z m-153 -286 c43 -29 79 -85 98 -152 l12 -45 7 38 c10 54 22 60
15 7 -4 -25 -8 -50 -10 -57 -2 -7 0 -15 5 -18 6 -4 10 5 10 18 0 34 35 132 60
167 12 17 40 41 63 54 44 25 125 51 134 42 3 -2 -6 -29 -19 -58 -18 -39 -48
-74 -111 -131 -85 -77 -121 -131 -137 -201 -7 -30 -7 -29 -15 19 -10 69 -44
124 -102 164 -70 50 -122 101 -144 143 -32 63 -28 68 39 51 31 -8 74 -26 95
-41z"/>
<path d="M1496 2478 c-3 -13 -6 -91 -6 -174 0 -122 3 -153 14 -157 22 -9 26
15 26 166 0 141 -5 187 -20 187 -4 0 -10 -10 -14 -22z"/>
<path d="M2230 2212 c0 -4 4 -12 9 -17 15 -17 23 -73 11 -80 -6 -4 -8 -16 -5
-27 4 -11 1 -26 -8 -36 -14 -15 -14 -19 2 -38 17 -21 17 -21 18 15 0 20 2 61
3 91 4 58 -5 100 -21 100 -5 0 -9 -4 -9 -8z"/>
<path d="M2296 1975 c-21 -7 -53 -27 -70 -43 -137 -127 -176 -154 -281 -188
-102 -34 -148 -57 -210 -106 -94 -75 -162 -186 -185 -306 -14 -70 -9 -238 7
-267 11 -19 12 -19 21 5 15 40 89 132 135 168 23 19 72 49 109 68 50 25 75 46
99 80 45 65 79 167 79 237 0 36 4 56 10 52 15 -9 12 -114 -5 -171 -8 -27 -30
-75 -50 -108 -33 -55 -33 -58 -12 -53 12 3 66 13 120 22 54 8 113 21 130 29
119 50 195 202 205 412 2 61 2 128 -2 148 -6 31 -11 36 -34 36 -15 -1 -44 -7
-66 -15z m68 -31 c13 -34 5 -187 -14 -269 -24 -102 -46 -147 -96 -198 -50 -51
-80 -65 -170 -81 -87 -14 -96 -9 -73 47 7 17 14 37 16 42 1 6 7 36 14 67 12
60 9 91 -14 123 -13 16 -17 17 -31 6 -9 -7 -16 -28 -16 -45 0 -36 -21 -115
-43 -166 -26 -60 -81 -113 -153 -150 -45 -23 -93 -59 -137 -103 -77 -79 -83
-77 -74 36 8 108 22 152 74 242 62 105 164 177 328 229 76 25 144 67 225 143
41 38 84 75 95 81 29 16 62 15 69 -4z"/>
<path d="M2178 1667 c-5 -10 -8 -26 -8 -35 0 -28 -45 -116 -80 -155 -38 -44
-25 -49 19 -8 43 40 83 131 79 178 -2 28 -5 33 -10 20z"/>
<path d="M2211 1649 c-2 -64 -31 -130 -82 -181 -51 -51 -47 -64 5 -24 59 45
107 166 87 217 -9 22 -10 21 -10 -12z"/>
<path d="M1180 1905 c0 -40 41 -99 129 -185 74 -74 106 -114 138 -175 l42 -80
1 126 c0 116 -2 129 -26 178 -33 65 -91 105 -173 121 -31 5 -68 14 -83 19 -21
7 -28 6 -28 -4z m128 -50 c106 -32 155 -102 150 -218 l-3 -72 -25 50 c-14 27
-64 91 -112 142 -113 118 -114 128 -10 98z"/>
<path d="M1771 1899 c-106 -18 -184 -68 -220 -142 -16 -33 -21 -66 -23 -159
-2 -64 0 -119 3 -122 3 -3 21 26 39 65 33 72 46 86 177 211 51 48 75 79 86
112 11 33 12 46 4 45 -7 -1 -36 -5 -66 -10z m18 -51 c-6 -12 -49 -59 -95 -105
-46 -46 -95 -105 -108 -131 -24 -47 -24 -47 -31 -19 -9 34 2 113 20 147 37 69
127 126 203 129 20 1 21 -1 11 -21z"/>
<path d="M493 1793 c-24 -61 105 -409 186 -506 11 -12 39 -46 64 -75 47 -56
156 -143 222 -179 87 -46 165 -64 307 -70 l136 -6 6 -30 c3 -16 6 -52 6 -79 0
-103 75 -163 139 -110 24 19 51 107 44 143 -2 13 0 36 6 50 9 26 11 26 143 32
117 5 170 14 243 41 289 106 505 401 539 736 7 66 -8 47 -19 -24 -29 -205
-123 -393 -263 -529 -159 -152 -325 -217 -559 -217 l-108 0 3 -67 c4 -85 -14
-142 -50 -163 -25 -13 -31 -13 -55 0 -37 21 -55 78 -51 163 l3 67 -102 0
c-185 0 -314 39 -448 135 -150 107 -287 310 -340 505 -26 94 -44 184 -38 193
2 4 2 7 -2 7 -3 0 -8 -7 -12 -17z"/>
<path d="M794 1642 c6 -58 50 -147 87 -173 39 -27 49 -18 14 13 -32 28 -52 62
-83 143 l-22 60 4 -43z"/>
<path d="M1486 1011 c-28 -146 -15 -251 29 -238 35 11 47 145 20 233 -8 27
-15 59 -15 71 0 12 -4 24 -8 27 -4 2 -16 -39 -26 -93z m44 -117 c0 -49 -4 -75
-14 -83 -12 -10 -16 -5 -26 23 -11 33 -9 67 6 140 6 28 7 29 20 11 9 -12 14
-45 14 -91z"/>
<path d="M1900 665 l-33 -34 -86 4 c-47 2 -103 11 -123 19 -21 9 -62 16 -93
16 -51 0 -55 -2 -55 -24 0 -18 -7 -25 -31 -30 -47 -9 -49 -8 -49 24 0 24 -4
30 -21 30 -18 0 -20 -5 -17 -36 3 -34 1 -36 -41 -51 l-43 -15 -32 38 c-17 21
-36 45 -43 53 -6 9 -14 13 -18 9 -3 -3 -9 -65 -12 -137 -5 -117 -4 -131 10
-131 10 0 17 6 17 14 0 9 11 3 29 -15 30 -30 55 -37 66 -19 3 6 -3 10 -14 10
-14 0 -19 5 -15 15 4 8 1 15 -5 15 -6 0 -11 -6 -11 -12 -1 -20 -30 24 -30 44
0 24 28 78 39 78 5 0 33 -28 61 -62 29 -35 56 -64 60 -66 4 -1 10 39 14 90 4
51 9 94 11 96 2 2 20 7 39 12 l36 8 0 -105 0 -106 68 5 c77 6 121 25 147 65
21 31 25 107 7 125 -22 22 -12 28 53 28 36 0 65 -4 65 -10 0 -5 -10 -9 -21 -7
-12 1 -24 -4 -27 -12 -3 -10 0 -12 12 -8 19 7 18 6 -38 -87 -35 -58 -47 -116
-26 -116 22 0 68 30 94 60 19 24 26 43 26 76 0 40 2 44 24 44 14 0 28 -5 31
-10 4 -6 3 -10 -2 -9 -25 4 -35 -1 -24 -14 6 -8 10 -16 8 -18 -1 -2 6 5 15 16
10 11 15 27 12 35 -3 8 -2 11 2 8 11 -12 79 29 112 67 35 39 41 65 16 65 -26
0 -55 -20 -48 -33 4 -7 3 -9 -1 -4 -5 4 -29 -12 -54 -37 -45 -43 -91 -67 -91
-48 0 10 32 38 84 75 14 10 26 24 26 32 0 27 -45 16 -80 -20z m150 -5 c-14
-26 -60 -61 -72 -54 -5 3 -2 14 8 25 9 10 20 16 25 14 7 -5 22 11 25 28 1 4 2
10 3 13 0 3 6 2 11 -1 7 -4 7 -12 0 -25z m-415 -19 c15 -6 6 -9 -33 -12 -52
-4 -69 1 -55 15 9 8 63 6 88 -3z m63 -65 c15 -48 1 -110 -31 -130 -12 -8 -43
-16 -69 -19 l-48 -5 0 94 0 93 33 4 c17 2 48 4 67 3 31 -1 36 -5 48 -40z
m-431 -43 c-9 -10 -20 -30 -26 -43 -8 -20 -10 -12 -10 45 l-1 70 27 -27 c25
-25 26 -28 10 -45z m133 -10 l-1 -58 -38 45 -39 45 26 12 c48 21 52 17 52 -44z
m456 -18 c-9 -45 -96 -133 -96 -97 0 5 21 41 47 82 47 74 60 78 49 15z"/>
<path d="M740 545 c0 -69 0 -128 -1 -132 0 -5 7 -10 17 -11 15 -4 16 7 12 96
-2 55 -1 99 3 96 4 -2 24 -31 45 -64 22 -33 44 -60 51 -60 7 0 30 33 53 73
l40 72 0 -107 c0 -101 1 -108 20 -108 19 0 20 7 20 135 0 126 -1 135 -19 135
-13 0 -31 -23 -60 -80 -23 -44 -43 -80 -45 -80 -2 0 -27 36 -57 80 -30 43 -60
79 -66 80 -10 0 -13 -31 -13 -125z"/>
<path d="M1080 535 c0 -128 1 -135 20 -135 19 0 20 7 20 135 0 128 -1 135 -20
135 -19 0 -20 -7 -20 -135z"/>
<path d="M2214 602 c-12 -9 -34 -41 -49 -69 -16 -29 -32 -53 -37 -53 -15 0 -8
21 22 65 45 66 39 80 -20 48 -25 -14 -34 -15 -37 -5 -7 19 -37 14 -50 -8 -14
-22 -110 -100 -123 -100 -5 0 -16 8 -25 17 -16 16 -17 15 -13 -3 5 -28 52 -30
90 -3 l31 23 -6 -31 c-4 -23 -2 -35 10 -45 15 -11 16 -11 10 5 -3 9 -2 17 3
17 6 0 10 -4 10 -10 0 -5 5 -10 10 -10 6 0 10 7 10 15 0 9 9 25 20 37 10 11
22 34 25 49 4 16 11 29 17 29 6 0 7 -7 2 -17 -4 -10 -9 -35 -12 -57 -4 -37 -3
-39 21 -32 21 5 26 2 29 -16 2 -12 9 -23 15 -25 20 -7 63 47 76 94 8 29 17 43
28 43 25 0 49 11 49 22 0 6 -11 7 -27 3 -20 -5 -31 -1 -42 14 -15 19 -17 19
-37 3z m15 -74 c-14 -43 -58 -103 -59 -81 0 7 12 42 27 78 17 43 30 62 37 55
6 -6 5 -24 -5 -52z m-149 18 c0 -16 -38 -66 -51 -66 -16 0 -10 26 12 54 22 28
39 34 39 12z"/>
</g>
</svg>
